<?xml version="1.0" encoding="utf-8"?>
<!-- Generator: Adobe Illustrator 14.0.0, SVG Export Plug-In . SVG Version: 6.00 Build 43363)  -->
<svg version="1.2" baseProfile="tiny" xmlns="http://www.w3.org/2000/svg" x="0px"
	 y="0px" viewBox="0 0 274.528 129.033" xml:space="preserve">
<g id="Calque_1">
	<g>
		<g>
			<path fill="#A9AAAC" d="M274.528,19.005c0,1.273-0.443,2.357-1.332,3.248c-0.887,0.893-1.965,1.338-3.238,1.338
				c-1.271,0-2.352-0.445-3.234-1.336c-0.881-0.889-1.322-1.973-1.322-3.25c0-1.265,0.445-2.34,1.328-3.227
				c0.887-0.886,1.963-1.328,3.229-1.328c1.273,0,2.352,0.441,3.238,1.324C274.085,16.659,274.528,17.737,274.528,19.005z
				 M269.958,15.065c-1.092,0-2.018,0.383-2.777,1.15c-0.764,0.77-1.145,1.699-1.145,2.789c0,1.102,0.381,2.039,1.133,2.807
				c0.758,0.768,1.682,1.152,2.789,1.152c1.1,0,2.027-0.387,2.785-1.156c0.762-0.77,1.141-1.705,1.141-2.803
				c0-1.096-0.385-2.026-1.143-2.79C271.981,15.448,271.05,15.065,269.958,15.065z M269.87,16.484c0.621,0,1.08,0.06,1.365,0.182
				c0.52,0.216,0.779,0.638,0.779,1.269c0,0.447-0.162,0.777-0.492,0.988c-0.174,0.113-0.414,0.194-0.729,0.244
				c0.33,0.049,0.602,0.191,0.818,0.424c0.211,0.237,0.32,0.516,0.32,0.846v0.366c0,0.349,0.02,0.56,0.055,0.634l0.027,0.064h-0.82
				l-0.012-0.051c-0.004-0.014-0.008-0.031-0.012-0.056l-0.02-0.163v-0.396c0-0.583-0.156-0.966-0.473-1.152
				c-0.184-0.109-0.508-0.16-0.982-0.16h-0.697v1.979h-0.883v-5.017H269.87z M271.151,18.007c0-0.389-0.145-0.65-0.434-0.788
				c-0.195-0.087-0.514-0.13-0.967-0.13h-0.752v1.816h0.793c0.379,0,0.654-0.039,0.844-0.112
				C270.981,18.655,271.151,18.396,271.151,18.007z"/>
			<path fill="#A9AAAC" d="M243.817,68.355c-7.113,0-13.859-2.828-18.988-7.961c-5.135-5.133-7.959-11.877-7.959-18.989
				c0-7.114,2.824-13.86,7.959-18.993c5.129-5.135,11.875-7.962,18.988-7.962c7.115,0,13.857,2.827,18.988,7.962
				c5.135,5.133,7.961,11.879,7.961,18.993c0,7.112-2.826,13.856-7.961,18.989C257.675,65.527,250.933,68.355,243.817,68.355
				L243.817,68.355z M243.817,27.44c-7.566,0-13.959,6.395-13.959,13.965c0,7.568,6.393,13.96,13.959,13.96
				c7.57,0,13.961-6.392,13.961-13.96C257.778,33.835,251.388,27.44,243.817,27.44L243.817,27.44z"/>
			<path fill="#A9AAAC" d="M200.282,68.355c-3.982,0-7.205-2.907-7.205-6.495V44.258c0-3.586,3.223-6.493,7.205-6.493
				c3.975,0,7.201,2.907,7.201,6.493V61.86C207.483,65.448,204.257,68.355,200.282,68.355L200.282,68.355z"/>
			<path fill="#A9AAAC" d="M200.282,31.654c-4.744,0-8.602-3.859-8.602-8.603c0-4.742,3.857-8.602,8.602-8.602
				c4.742,0,8.598,3.859,8.598,8.602C208.88,27.795,205.024,31.654,200.282,31.654L200.282,31.654z"/>
			<path fill="#A9AAAC" d="M164.853,68.355H152.13c-3.586,0-6.493-2.907-6.493-6.495c0-3.586,2.907-6.495,6.493-6.495h12.723
				c5.779,0,5.779-2.337,5.779-3.732s0-3.732-5.779-3.732c-11.4,0-18.767-6.566-18.767-16.724c0-10.162,7.366-16.727,18.767-16.727
				h8.184c3.586,0,6.492,2.908,6.492,6.497c0,3.585-2.906,6.493-6.492,6.493h-8.184c-5.779,0-5.779,2.338-5.779,3.736
				c0,1.395,0,3.732,5.779,3.732c11.4,0,18.77,6.566,18.77,16.724C183.622,61.792,176.253,68.355,164.853,68.355L164.853,68.355z"/>
			<path fill="#A9AAAC" d="M107.995,68.355c-3.586,0-6.494-2.907-6.494-6.495V41.403c0-3.588,2.908-6.496,6.494-6.496h12.273
				c2.258,0,4.055-0.438,4.931-1.206c0.209-0.184,0.851-0.743,0.851-2.526c0-1.785-0.642-2.344-0.851-2.528
				c-0.876-0.767-2.673-1.206-4.931-1.206h-16.03c-3.586,0-6.495-2.908-6.495-6.493c0-3.589,2.909-6.497,6.495-6.497h16.03
				c5.596,0,10.133,1.488,13.484,4.42c3.459,3.026,5.286,7.281,5.286,12.305c0,5.024-1.827,9.275-5.286,12.303
				c-3.352,2.933-7.889,4.422-13.484,4.422h-5.777V61.86C114.491,65.448,111.583,68.355,107.995,68.355L107.995,68.355z"/>
		</g>
		<g>
			<g>
				<path fill="none" d="M38.323,55.357c-3.879,0-7.035,3.156-7.035,7.035c0,3.877,3.156,7.031,7.035,7.031
					c3.878,0,7.033-3.154,7.033-7.031C45.356,58.579,42.136,55.357,38.323,55.357z M38.323,66.648c-2.352,0-4.26-1.908-4.26-4.256
					c0-2.352,1.908-4.259,4.26-4.259s4.258,2.118,4.258,4.259C42.581,64.74,40.675,66.648,38.323,66.648z"/>
				<path fill="#A9AAAC" d="M10.766,11.705c0.017,0.163,0.049,0.321,0.049,0.488c0,14.4,13.086,18.125,23.249,18.846V13.935
					c0-2.352,1.907-4.258,4.259-4.258s4.258,1.906,4.258,4.258v17.104c10.162-0.721,23.247-4.445,23.247-18.846
					c0-0.168,0.032-0.327,0.049-0.49C58.909,4.491,49.143,0,38.323,0C27.502,0,17.735,4.492,10.766,11.705z"/>
				<path fill="#A9AAAC" d="M42.581,40.497v6.53c0,2.351-1.906,4.259-4.258,4.259s-4.259-1.908-4.259-4.259v-6.53
					C18.282,39.544,7.476,33.2,3.304,22.759C1.186,27.515,0,32.778,0,38.32c0,21.161,17.158,38.317,38.323,38.317
					c21.164,0,38.323-17.156,38.323-38.317c0-5.543-1.187-10.807-3.305-15.563C69.17,33.199,58.364,39.544,42.581,40.497z
					 M38.323,69.424c-3.879,0-7.035-3.154-7.035-7.031c0-3.879,3.156-7.035,7.035-7.035c3.813,0,7.033,3.222,7.033,7.035
					C45.356,66.27,42.201,69.424,38.323,69.424z"/>
				<path fill="#A9AAAC" d="M38.323,58.134c-2.352,0-4.26,1.907-4.26,4.259c0,2.348,1.908,4.256,4.26,4.256s4.258-1.908,4.258-4.256
					C42.581,60.252,40.675,58.134,38.323,58.134z"/>
			</g>
		</g>
	</g>
	<g>
		<path fill="#1F1E21"
			  d="M5.029,128.514V98.919h3.279v13.157h14.278V98.919h3.319v29.595h-3.319v-13.518H8.308v13.518H5.029z"/>
		<path fill="#1F1E21" d="M33.148,128.514h-3.56l12.358-29.595h3.199l12.238,29.595h-3.6l-3.439-8.318H36.548L33.148,128.514z
			 M43.426,102.638l-5.878,14.838h11.797L43.426,102.638z"/>
		<path fill="#1F1E21" d="M68.587,98.919c4.159,0,6.119,0.479,7.958,1.879c1.96,1.521,3.16,4.279,3.16,7.039
			c0,2.8-1.24,5.64-3.04,7.039c-1.959,1.52-3.959,2-7.799,2h-4.759v11.638h-3.319V98.919H68.587z M64.108,113.956h4.719
			c2.48,0,4-0.28,5.479-1.239c1.28-0.84,2.199-2.72,2.199-4.8c0-2.119-0.919-3.999-2.239-4.839c-1.479-0.96-2.999-1.24-5.519-1.24
			h-4.64V113.956z"/>
		<path fill="#1F1E21" d="M91.067,98.919c4.159,0,6.119,0.479,7.958,1.879c1.96,1.521,3.16,4.279,3.16,7.039
			c0,2.8-1.24,5.64-3.04,7.039c-1.959,1.52-3.959,2-7.799,2h-4.759v11.638h-3.319V98.919H91.067z M86.587,113.956h4.719
			c2.48,0,4-0.28,5.479-1.239c1.28-0.84,2.199-2.72,2.199-4.8c0-2.119-0.919-3.999-2.239-4.839c-1.479-0.96-2.999-1.24-5.519-1.24
			h-4.64V113.956z"/>
		<path fill="#1F1E21"
			  d="M113.105,118.115l-9.519-19.196h3.6l7.599,15.997l7.559-15.997h3.6l-9.519,19.196v10.398h-3.319V118.115z"
		/>
		<path fill="#1F1E21" d="M169.421,120.555c-1.92,4.56-7.078,8.479-13.598,8.479c-8.758,0-15.438-6.759-15.438-15.317
			c0-8.438,6.52-15.317,15.398-15.317c7.318,0,11.918,4.88,13.637,8.639h-3.559c-1-1.76-4.359-5.719-10.078-5.719
			c-6.92,0-12.119,5.479-12.119,12.357c0,6.999,5.24,12.438,12.119,12.438c6.199,0,9.357-4.439,10.078-5.56H169.421z"/>
		<path fill="#1F1E21" d="M174.226,98.919h3.32v26.675h11.277v2.92h-14.598V98.919z"/>
		<path fill="#1F1E21" d="M192.347,98.919h3.279v29.595h-3.279V98.919z"/>
		<path fill="#1F1E21" d="M222.7,123.635l-0.039-24.716h3.199v29.595h-3.199l-17.557-24.916l0.08,24.916h-3.199V98.919h3.359
			L222.7,123.635z"/>
		<path fill="#1F1E21" d="M232.185,98.919h3.279v29.595h-3.279V98.919z"/>
		<path fill="#1F1E21" d="M269.499,120.555c-1.92,4.56-7.078,8.479-13.598,8.479c-8.758,0-15.438-6.759-15.438-15.317
			c0-8.438,6.52-15.317,15.398-15.317c7.318,0,11.918,4.88,13.637,8.639h-3.559c-1-1.76-4.359-5.719-10.078-5.719
			c-6.92,0-12.119,5.479-12.119,12.357c0,6.999,5.24,12.438,12.119,12.438c6.199,0,9.357-4.439,10.078-5.56H269.499z"/>
	</g>
</g>
	<g id="Calque_2" display="none">
	<rect x="2.62" y="49.025" display="inline" fill="none" width="269.29" height="30.982"/>

		<text transform="matrix(1 0 0 1 2.8462 78.625)" display="inline" fill="#1F1E21"
			  font-family="'ITCAvantGardeStd-Bk'" font-size="40">H</text>

		<text transform="matrix(1 0 0 1 30.0459 78.625)" display="inline" fill="#1F1E21"
			  font-family="'ITCAvantGardeStd-Bk'" font-size="40">A</text>

		<text transform="matrix(1 0 0 1 58.8857 78.625)" display="inline" fill="#1F1E21"
			  font-family="'ITCAvantGardeStd-Bk'" font-size="40">P</text>

		<text transform="matrix(1 0 0 1 81.3652 78.625)" display="inline" fill="#1F1E21"
			  font-family="'ITCAvantGardeStd-Bk'" font-size="40">P</text>

		<text transform="matrix(1 0 0 1 103.8438 78.625)" display="inline" fill="#1F1E21"
			  font-family="'ITCAvantGardeStd-Bk'" font-size="40">Y</text>

		<text transform="matrix(1 0 0 1 127.6436 78.625)" display="inline" fill="#1F1E21"
			  font-family="'ITCAvantGardeStd-Bk'" font-size="40"> </text>

		<text transform="matrix(1 0 0 1 139.5635 78.625)" display="inline" fill="#1F1E21"
			  font-family="'ITCAvantGardeStd-Bk'" font-size="40">C</text>

		<text transform="matrix(1 0 0 1 172.0029 78.625)" display="inline" fill="#1F1E21"
			  font-family="'ITCAvantGardeStd-Bk'" font-size="40">L</text>

		<text transform="matrix(1 0 0 1 190.1631 78.625)" display="inline" fill="#1F1E21"
			  font-family="'ITCAvantGardeStd-Bk'" font-size="40">I</text>

		<text transform="matrix(1 0 0 1 199.8018 78.625)" display="inline" fill="#1F1E21"
			  font-family="'ITCAvantGardeStd-Bk'" font-size="40">N</text>

		<text transform="matrix(1 0 0 1 230.002 78.625)" display="inline" fill="#1F1E21"
			  font-family="'ITCAvantGardeStd-Bk'" font-size="40">I</text>

		<text transform="matrix(1 0 0 1 239.6416 78.625)" display="inline" fill="#1F1E21"
			  font-family="'ITCAvantGardeStd-Bk'" font-size="40">C</text>
</g>
</svg>
