<?xml version="1.0" encoding="utf-8"?>
<!-- Generator: Adobe Illustrator 25.2.1, SVG Export Plug-In . SVG Version: 6.00 Build 0)  -->
<svg version="1.1" id="Calque_1" xmlns="http://www.w3.org/2000/svg" xmlns:xlink="http://www.w3.org/1999/xlink" x="0px" y="0px"
	 viewBox="0 0 198.42 12.76" style="enable-background:new 0 0 198.42 12.76;" xml:space="preserve">
<style type="text/css">
	.st0{fill:url(#SVGID_1_);}
	.st1{fill:url(#SVGID_2_);}
	.st2{fill:#FFFFFF;}
</style>
<g id="Pillule_CMYK">
	
		<linearGradient id="SVGID_1_" gradientUnits="userSpaceOnUse" x1="-159.1862" y1="150.7422" x2="-159.1862" y2="163.4986" gradientTransform="matrix(1 0 0 1 182.5723 -150.7422)">
		<stop  offset="0" style="stop-color:#F7D6D3"/>
		<stop  offset="1" style="stop-color:#E1001A"/>
	</linearGradient>
	<path class="st0" d="M15.59,0H25.9c2.92,0,5.28,2.66,5.28,5.93v0.9c0,3.27-2.36,5.93-5.28,5.93H15.59V0z"/>
	
		<linearGradient id="SVGID_2_" gradientUnits="userSpaceOnUse" x1="-174.7768" y1="150.7422" x2="-174.7768" y2="163.4986" gradientTransform="matrix(1 0 0 1 182.5723 -150.7422)">
		<stop  offset="0" style="stop-color:#FFFFFF"/>
		<stop  offset="0.1646" style="stop-color:#FEFBFB"/>
		<stop  offset="0.3443" style="stop-color:#FCEDEF"/>
		<stop  offset="0.5311" style="stop-color:#F9D8DA"/>
		<stop  offset="0.7228" style="stop-color:#F5B9BD"/>
		<stop  offset="0.9163" style="stop-color:#EF9299"/>
		<stop  offset="1" style="stop-color:#EC7F87"/>
	</linearGradient>
	<path class="st1" d="M15.59,12.76H5.28C2.37,12.76,0,10.1,0,6.83v-0.9C0,2.66,2.37,0,5.28,0h10.31V12.76z"/>
</g>
<g id="Audiocament">
	<path class="st2" d="M50.64,10.05h-3.97l-0.57,1.8h-3.58L46.78,0.9h3.85l4.25,10.95h-3.68L50.64,10.05z M49.9,7.68l-1.24-3.94
		l-1.24,3.94H49.9z"/>
	<path class="st2" d="M64.55,0.9h3.51v6.53c0,0.65-0.1,1.26-0.31,1.83c-0.21,0.58-0.54,1.08-0.99,1.51
		c-0.45,0.43-0.92,0.73-1.41,0.91c-0.68,0.24-1.5,0.37-2.46,0.37c-0.55,0-1.16-0.04-1.81-0.11c-0.66-0.07-1.2-0.22-1.64-0.44
		c-0.44-0.22-0.84-0.54-1.21-0.94c-0.37-0.41-0.61-0.83-0.75-1.26c-0.22-0.7-0.33-1.31-0.33-1.85V0.9h3.5v6.69
		c0,0.6,0.17,1.07,0.52,1.4c0.34,0.34,0.82,0.5,1.43,0.5c0.61,0,1.08-0.17,1.43-0.5c0.34-0.33,0.52-0.8,0.52-1.41V0.9z"/>
	<path class="st2" d="M72.12,0.9h5.22c1.03,0,1.86,0.13,2.49,0.4c0.63,0.27,1.16,0.65,1.57,1.16c0.41,0.5,0.71,1.09,0.9,1.76
		c0.19,0.67,0.28,1.37,0.28,2.12c0,1.17-0.14,2.08-0.42,2.72c-0.28,0.65-0.66,1.19-1.15,1.62c-0.49,0.44-1.02,0.73-1.58,0.87
		c-0.77,0.2-1.47,0.3-2.09,0.3h-5.22V0.9z M75.62,3.39v5.98h0.87c0.74,0,1.26-0.08,1.57-0.23c0.31-0.16,0.56-0.43,0.73-0.82
		c0.18-0.39,0.26-1.02,0.26-1.9c0-1.16-0.2-1.95-0.59-2.38c-0.39-0.43-1.05-0.64-1.96-0.64H75.62z"/>
	<path class="st2" d="M86.24,0.9h3.52v10.95h-3.52V0.9z"/>
	<path class="st2" d="M93.53,6.39c0-1.79,0.52-3.18,1.55-4.18c1.03-1,2.47-1.5,4.32-1.5c1.89,0,3.35,0.49,4.37,1.47
		c1.02,0.98,1.54,2.35,1.54,4.12c0,1.28-0.22,2.33-0.67,3.15c-0.45,0.82-1.09,1.46-1.94,1.91c-0.85,0.46-1.9,0.68-3.16,0.68
		c-1.28,0-2.34-0.2-3.18-0.59c-0.84-0.39-1.52-1.02-2.04-1.87C93.79,8.73,93.53,7.67,93.53,6.39z M97.03,6.4
		c0,1.11,0.21,1.9,0.64,2.39c0.43,0.48,1.01,0.73,1.75,0.73c0.76,0,1.34-0.24,1.76-0.71c0.42-0.47,0.62-1.32,0.62-2.55
		c0-1.03-0.22-1.79-0.65-2.26c-0.43-0.48-1.02-0.71-1.76-0.71c-0.71,0-1.28,0.24-1.71,0.73C97.25,4.48,97.03,5.29,97.03,6.4z"/>
	<path class="st2" d="M116.44,7.39l3.08,0.9c-0.21,0.83-0.53,1.52-0.98,2.08c-0.44,0.56-1,0.98-1.66,1.26
		c-0.66,0.28-1.5,0.42-2.51,0.42c-1.24,0-2.24-0.17-3.03-0.52c-0.78-0.35-1.46-0.96-2.03-1.83c-0.57-0.87-0.85-1.99-0.85-3.35
		c0-1.81,0.5-3.21,1.5-4.18c1-0.97,2.42-1.46,4.25-1.46c1.43,0,2.56,0.28,3.38,0.84c0.82,0.56,1.43,1.42,1.83,2.57l-3.1,0.67
		c-0.11-0.33-0.22-0.58-0.34-0.73c-0.2-0.26-0.44-0.46-0.72-0.6c-0.29-0.14-0.6-0.21-0.96-0.21c-0.8,0-1.41,0.31-1.83,0.93
		c-0.32,0.46-0.48,1.18-0.48,2.16c0,1.22,0.19,2.05,0.57,2.5c0.38,0.45,0.92,0.68,1.61,0.68c0.67,0,1.18-0.18,1.52-0.55
		C116.04,8.6,116.29,8.08,116.44,7.39z"/>
	<path class="st2" d="M129.89,10.05h-3.97l-0.57,1.8h-3.58l4.26-10.95h3.85l4.25,10.95h-3.68L129.89,10.05z M129.15,7.68l-1.24-3.94
		l-1.24,3.94H129.15z"/>
	<path class="st2" d="M136.91,0.9h4.64l1.75,6.66l1.76-6.66h4.62v10.95h-2.88V3.5l-2.2,8.35h-2.61l-2.2-8.35v8.35h-2.88V0.9z"/>
	<path class="st2" d="M153.62,0.9h9.4v2.34h-5.88v1.72h5.46v2.24h-5.46v2.16h6.05v2.49h-9.57V0.9z"/>
	<path class="st2" d="M166.79,0.9h3.28l4.3,6.08V0.9h3.3v10.95h-3.3l-4.28-6.04v6.04h-3.3V0.9z"/>
	<path class="st2" d="M180.89,0.9h10.67v2.71h-3.59v8.24h-3.5V3.62h-3.57V0.9z"/>
	<path class="st2" d="M198.42,3.54c0,0.51-0.13,0.98-0.38,1.42c-0.25,0.44-0.6,0.78-1.04,1.04c-0.44,0.25-0.91,0.38-1.42,0.38
		c-0.5,0-0.98-0.13-1.41-0.38c-0.44-0.25-0.78-0.6-1.04-1.04c-0.25-0.44-0.38-0.91-0.38-1.42c0-0.5,0.13-0.98,0.38-1.42
		c0.25-0.44,0.6-0.79,1.04-1.04c0.44-0.25,0.91-0.38,1.41-0.38c0.51,0,0.98,0.13,1.42,0.38c0.44,0.25,0.78,0.6,1.04,1.04
		C198.3,2.57,198.42,3.04,198.42,3.54z M197.88,3.54c0-0.63-0.22-1.17-0.67-1.62c-0.45-0.45-0.99-0.67-1.62-0.67
		c-0.63,0-1.17,0.22-1.62,0.67c-0.45,0.45-0.67,0.99-0.67,1.62c0,0.63,0.22,1.17,0.67,1.62c0.45,0.45,0.99,0.67,1.62,0.67
		c0.63,0,1.17-0.22,1.62-0.67C197.65,4.71,197.88,4.17,197.88,3.54z M194.31,2.03h1.35c0.38,0,0.66,0.08,0.83,0.23
		c0.17,0.15,0.26,0.36,0.26,0.62c0,0.2-0.07,0.38-0.2,0.52c-0.13,0.15-0.34,0.25-0.62,0.32c0.12,0.04,0.2,0.09,0.26,0.14
		c0.08,0.07,0.16,0.17,0.24,0.31c0.01,0.01,0.17,0.3,0.49,0.88h-0.89c-0.29-0.58-0.48-0.92-0.58-1.03c-0.1-0.11-0.19-0.17-0.29-0.17
		c-0.02,0-0.05,0-0.09,0.01v1.19h-0.76V2.03z M195.06,3.31h0.32c0.22,0,0.37-0.03,0.46-0.1c0.09-0.07,0.13-0.16,0.13-0.27
		c0-0.11-0.04-0.2-0.13-0.27c-0.08-0.07-0.23-0.1-0.43-0.1h-0.35V3.31z"/>
</g>
</svg>
