<svg version="1.1" xmlns="http://www.w3.org/2000/svg" xmlns:xlink="http://www.w3.org/1999/xlink" viewBox="0 0 172 172"><g fill="none" fill-rule="nonzero" stroke="none" stroke-width="1" stroke-linecap="butt" stroke-linejoin="miter" stroke-miterlimit="10" stroke-dasharray="" stroke-dashoffset="0" font-family="none" font-weight="none" font-size="none" text-anchor="none" style="mix-blend-mode: normal"><path d="M0,172v-172h172v172z" fill="none"></path><g fill="#ffffff"><path d="M72.76923,0c-10.95673,0 -19.84615,8.88942 -19.84615,19.84615v52.92308h-21.5c-9.32872,0 -11.29267,1.4988 -3.30769,9.50962l43.62019,43.62019c14.54868,14.54868 14.36779,14.60036 28.94231,0l43.41346,-43.62019c7.98497,-8.01081 5.32332,-9.50962 -3.10096,-9.50962h-21.91346v-52.92308c0,-10.95673 -8.88942,-19.84615 -19.84615,-19.84615zM0,125.69231v26.46154c0,10.95673 8.88942,19.84615 19.84615,19.84615h132.30769c10.95673,0 19.84615,-8.88942 19.84615,-19.84615v-26.46154h-13.23077v26.46154c0,3.64363 -2.97176,6.61538 -6.61538,6.61538h-132.30769c-3.64363,0 -6.61538,-2.97176 -6.61538,-6.61538v-26.46154z"></path></g></g></svg>